# xmcd
#
# Track frame offsets: 
#        150
#        30959
#        59948
#        94024
#        115838
#        127744
#        150662
#        176311
#        205655
#        233732
#        256745
#        282355
#        306970
#
# Disc length: 4436 seconds
#
# Revision: 1
# Processed by: cddbd v1.5.2PL0 Copyright (c) Steve Scherf et al.
# Submitted via: ExactAudioCopyFreeDBPlugin 1.0
#
DISCID=a311520d
DTITLE=Joey Negro - In The Beginning: Classic Productions and Remixes 
DTITLE='88-'93 [CD1)
DYEAR=1988
DGENRE=House
TTITLE0=Reese Project - Direct Me
TTITLE1=Do it, Believe It
TTITLE2=Extortion - How Do You See Me Now?
TTITLE3=Mystique - Fire (Spaced Mix)
TTITLE4=Don't Stop
TTITLE5=Umosia - We Are Unity
TTITLE6=Raven Maize - Forever Together
TTITLE7=Agora - Montayo
TTITLE8=Sold Out - Shine On
TTITLE9=2 Tuff - Jazz Thing
TTITLE10=Love Will Make It Right
TTITLE11=Pasha - One Kiss
TTITLE12=Nightflyte
EXTD=
EXTT0=
EXTT1=
EXTT2=
EXTT3=
EXTT4=
EXTT5=
EXTT6=
EXTT7=
EXTT8=
EXTT9=
EXTT10=
EXTT11=
EXTT12=
PLAYORDER=
